<svg class="rich-terminal" viewBox="0 0 994 660.0" xmlns="http://www.w3.org/2000/svg">
    <!-- Generated with Rich https://www.textualize.io -->
    <style>

    @font-face {
        font-family: "Fira Code";
        src: local("FiraCode-Regular"),
                url("https://cdnjs.cloudflare.com/ajax/libs/firacode/6.2.0/woff2/FiraCode-Regular.woff2") format("woff2"),
                url("https://cdnjs.cloudflare.com/ajax/libs/firacode/6.2.0/woff/FiraCode-Regular.woff") format("woff");
        font-style: normal;
        font-weight: 400;
    }
    @font-face {
        font-family: "Fira Code";
        src: local("FiraCode-Bold"),
                url("https://cdnjs.cloudflare.com/ajax/libs/firacode/6.2.0/woff2/FiraCode-Bold.woff2") format("woff2"),
                url("https://cdnjs.cloudflare.com/ajax/libs/firacode/6.2.0/woff/FiraCode-Bold.woff") format("woff");
        font-style: bold;
        font-weight: 700;
    }

    .terminal-1397548539-matrix {
        font-family: Fira Code, monospace;
        font-size: 20px;
        line-height: 24.4px;
        font-variant-east-asian: full-width;
    }

    .terminal-1397548539-title {
        font-size: 18px;
        font-weight: bold;
        font-family: arial;
    }

    .terminal-1397548539-r1 { fill: #c5c8c6 }
.terminal-1397548539-r2 { fill: #e0e0e0 }
.terminal-1397548539-r3 { fill: #a0a3a6 }
.terminal-1397548539-r4 { fill: #121212 }
.terminal-1397548539-r5 { fill: #1e2a38 }
.terminal-1397548539-r6 { fill: #b2c2d2 }
.terminal-1397548539-r7 { fill: #ddedf9;font-weight: bold }
.terminal-1397548539-r8 { fill: #4a9eff }
.terminal-1397548539-r9 { fill: #5cb85c }
.terminal-1397548539-r10 { fill: #ffa62b;font-weight: bold }
.terminal-1397548539-r11 { fill: #495259 }
    </style>

    <defs>
    <clipPath id="terminal-1397548539-clip-terminal">
      <rect x="0" y="0" width="975.0" height="609.0" />
    </clipPath>
    <clipPath id="terminal-1397548539-line-0">
    <rect x="0" y="1.5" width="976" height="24.65"/>
            </clipPath>
<clipPath id="terminal-1397548539-line-1">
    <rect x="0" y="25.9" width="976" height="24.65"/>
            </clipPath>
<clipPath id="terminal-1397548539-line-2">
    <rect x="0" y="50.3" width="976" height="24.65"/>
            </clipPath>
<clipPath id="terminal-1397548539-line-3">
    <rect x="0" y="74.7" width="976" height="24.65"/>
            </clipPath>
<clipPath id="terminal-1397548539-line-4">
    <rect x="0" y="99.1" width="976" height="24.65"/>
            </clipPath>
<clipPath id="terminal-1397548539-line-5">
    <rect x="0" y="123.5" width="976" height="24.65"/>
            </clipPath>
<clipPath id="terminal-1397548539-line-6">
    <rect x="0" y="147.9" width="976" height="24.65"/>
            </clipPath>
<clipPath id="terminal-1397548539-line-7">
    <rect x="0" y="172.3" width="976" height="24.65"/>
            </clipPath>
<clipPath id="terminal-1397548539-line-8">
    <rect x="0" y="196.7" width="976" height="24.65"/>
            </clipPath>
<clipPath id="terminal-1397548539-line-9">
    <rect x="0" y="221.1" width="976" height="24.65"/>
            </clipPath>
<clipPath id="terminal-1397548539-line-10">
    <rect x="0" y="245.5" width="976" height="24.65"/>
            </clipPath>
<clipPath id="terminal-1397548539-line-11">
    <rect x="0" y="269.9" width="976" height="24.65"/>
            </clipPath>
<clipPath id="terminal-1397548539-line-12">
    <rect x="0" y="294.3" width="976" height="24.65"/>
            </clipPath>
<clipPath id="terminal-1397548539-line-13">
    <rect x="0" y="318.7" width="976" height="24.65"/>
            </clipPath>
<clipPath id="terminal-1397548539-line-14">
    <rect x="0" y="343.1" width="976" height="24.65"/>
            </clipPath>
<clipPath id="terminal-1397548539-line-15">
    <rect x="0" y="367.5" width="976" height="24.65"/>
            </clipPath>
<clipPath id="terminal-1397548539-line-16">
    <rect x="0" y="391.9" width="976" height="24.65"/>
            </clipPath>
<clipPath id="terminal-1397548539-line-17">
    <rect x="0" y="416.3" width="976" height="24.65"/>
            </clipPath>
<clipPath id="terminal-1397548539-line-18">
    <rect x="0" y="440.7" width="976" height="24.65"/>
            </clipPath>
<clipPath id="terminal-1397548539-line-19">
    <rect x="0" y="465.1" width="976" height="24.65"/>
            </clipPath>
<clipPath id="terminal-1397548539-line-20">
    <rect x="0" y="489.5" width="976" height="24.65"/>
            </clipPath>
<clipPath id="terminal-1397548539-line-21">
    <rect x="0" y="513.9" width="976" height="24.65"/>
            </clipPath>
<clipPath id="terminal-1397548539-line-22">
    <rect x="0" y="538.3" width="976" height="24.65"/>
            </clipPath>
<clipPath id="terminal-1397548539-line-23">
    <rect x="0" y="562.7" width="976" height="24.65"/>
            </clipPath>
    </defs>

    <rect fill="#292929" stroke="rgba(255,255,255,0.35)" stroke-width="1" x="1" y="1" width="992" height="658" rx="8"/><text class="terminal-1397548539-title" fill="#c5c8c6" text-anchor="middle" x="496" y="27">CodePilot</text>
            <g transform="translate(26,22)">
            <circle cx="0" cy="0" r="7" fill="#ff5f57"/>
            <circle cx="22" cy="0" r="7" fill="#febc2e"/>
            <circle cx="44" cy="0" r="7" fill="#28c840"/>
            </g>
        
    <g transform="translate(9, 41)" clip-path="url(#terminal-1397548539-clip-terminal)">
    <rect fill="#242f38" x="0" y="1.5" width="12.2" height="24.65" shape-rendering="crispEdges"/><rect fill="#242f38" x="12.2" y="1.5" width="12.2" height="24.65" shape-rendering="crispEdges"/><rect fill="#242f38" x="24.4" y="1.5" width="61" height="24.65" shape-rendering="crispEdges"/><rect fill="#242f38" x="85.4" y="1.5" width="12.2" height="24.65" shape-rendering="crispEdges"/><rect fill="#242f38" x="97.6" y="1.5" width="158.6" height="24.65" shape-rendering="crispEdges"/><rect fill="#242f38" x="256.2" y="1.5" width="109.8" height="24.65" shape-rendering="crispEdges"/><rect fill="#242f38" x="366" y="1.5" width="36.6" height="24.65" shape-rendering="crispEdges"/><rect fill="#242f38" x="402.6" y="1.5" width="280.6" height="24.65" shape-rendering="crispEdges"/><rect fill="#242f38" x="683.2" y="1.5" width="170.8" height="24.65" shape-rendering="crispEdges"/><rect fill="#242f38" x="854" y="1.5" width="12.2" height="24.65" shape-rendering="crispEdges"/><rect fill="#242f38" x="866.2" y="1.5" width="0" height="24.65" shape-rendering="crispEdges"/><rect fill="#242f38" x="866.2" y="1.5" width="97.6" height="24.65" shape-rendering="crispEdges"/><rect fill="#242f38" x="963.8" y="1.5" width="12.2" height="24.65" shape-rendering="crispEdges"/><rect fill="#1e2a38" x="0" y="25.9" width="12.2" height="24.65" shape-rendering="crispEdges"/><rect fill="#0f1923" x="12.2" y="25.9" width="463.6" height="24.65" shape-rendering="crispEdges"/><rect fill="#121212" x="475.8" y="25.9" width="12.2" height="24.65" shape-rendering="crispEdges"/><rect fill="#1e2a38" x="488" y="25.9" width="12.2" height="24.65" shape-rendering="crispEdges"/><rect fill="#0f1923" x="500.2" y="25.9" width="463.6" height="24.65" shape-rendering="crispEdges"/><rect fill="#121212" x="963.8" y="25.9" width="12.2" height="24.65" shape-rendering="crispEdges"/><rect fill="#1e2a38" x="0" y="50.3" width="12.2" height="24.65" shape-rendering="crispEdges"/><rect fill="#0f1923" x="12.2" y="50.3" width="158.6" height="24.65" shape-rendering="crispEdges"/><rect fill="#0f1923" x="170.8" y="50.3" width="305" height="24.65" shape-rendering="crispEdges"/><rect fill="#121212" x="475.8" y="50.3" width="12.2" height="24.65" shape-rendering="crispEdges"/><rect fill="#4a9eff" x="488" y="50.3" width="12.2" height="24.65" shape-rendering="crispEdges"/><rect fill="#0f1923" x="500.2" y="50.3" width="353.8" height="24.65" shape-rendering="crispEdges"/><rect fill="#0f1923" x="854" y="50.3" width="109.8" height="24.65" shape-rendering="crispEdges"/><rect fill="#121212" x="963.8" y="50.3" width="12.2" height="24.65" shape-rendering="crispEdges"/><rect fill="#1e2a38" x="0" y="74.7" width="12.2" height="24.65" shape-rendering="crispEdges"/><rect fill="#0178d4" x="12.2" y="74.7" width="329.4" height="24.65" shape-rendering="crispEdges"/><rect fill="#272727" x="341.6" y="74.7" width="134.2" height="24.65" shape-rendering="crispEdges"/><rect fill="#121212" x="475.8" y="74.7" width="12.2" height="24.65" shape-rendering="crispEdges"/><rect fill="#4a9eff" x="488" y="74.7" width="12.2" height="24.65" shape-rendering="crispEdges"/><rect fill="#0f1923" x="500.2" y="74.7" width="305" height="24.65" shape-rendering="crispEdges"/><rect fill="#0f1923" x="805.2" y="74.7" width="158.6" height="24.65" shape-rendering="crispEdges"/><rect fill="#121212" x="963.8" y="74.7" width="12.2" height="24.65" shape-rendering="crispEdges"/><rect fill="#1e2a38" x="0" y="99.1" width="12.2" height="24.65" shape-rendering="crispEdges"/><rect fill="#0f1923" x="12.2" y="99.1" width="463.6" height="24.65" shape-rendering="crispEdges"/><rect fill="#121212" x="475.8" y="99.1" width="12.2" height="24.65" shape-rendering="crispEdges"/><rect fill="#4a9eff" x="488" y="99.1" width="12.2" height="24.65" shape-rendering="crispEdges"/><rect fill="#0f1923" x="500.2" y="99.1" width="134.2" height="24.65" shape-rendering="crispEdges"/><rect fill="#0f1923" x="634.4" y="99.1" width="329.4" height="24.65" shape-rendering="crispEdges"/><rect fill="#121212" x="963.8" y="99.1" width="12.2" height="24.65" shape-rendering="crispEdges"/><rect fill="#1e2a38" x="0" y="123.5" width="12.2" height="24.65" shape-rendering="crispEdges"/><rect fill="#0f1923" x="12.2" y="123.5" width="463.6" height="24.65" shape-rendering="crispEdges"/><rect fill="#121212" x="475.8" y="123.5" width="12.2" height="24.65" shape-rendering="crispEdges"/><rect fill="#1e2a38" x="488" y="123.5" width="12.2" height="24.65" shape-rendering="crispEdges"/><rect fill="#0f1923" x="500.2" y="123.5" width="463.6" height="24.65" shape-rendering="crispEdges"/><rect fill="#121212" x="963.8" y="123.5" width="12.2" height="24.65" shape-rendering="crispEdges"/><rect fill="#1e2a38" x="0" y="147.9" width="12.2" height="24.65" shape-rendering="crispEdges"/><rect fill="#0f1923" x="12.2" y="147.9" width="951.6" height="24.65" shape-rendering="crispEdges"/><rect fill="#121212" x="963.8" y="147.9" width="12.2" height="24.65" shape-rendering="crispEdges"/><rect fill="#1e2a38" x="0" y="172.3" width="12.2" height="24.65" shape-rendering="crispEdges"/><rect fill="#0f1923" x="12.2" y="172.3" width="927.2" height="24.65" shape-rendering="crispEdges"/><rect fill="#000000" x="939.4" y="172.3" width="24.4" height="24.65" shape-rendering="crispEdges"/><rect fill="#121212" x="963.8" y="172.3" width="12.2" height="24.65" shape-rendering="crispEdges"/><rect fill="#1e2a38" x="0" y="196.7" width="12.2" height="24.65" shape-rendering="crispEdges"/><rect fill="#0f1923" x="12.2" y="196.7" width="854" height="24.65" shape-rendering="crispEdges"/><rect fill="#0f1923" x="866.2" y="196.7" width="73.2" height="24.65" shape-rendering="crispEdges"/><rect fill="#000000" x="939.4" y="196.7" width="24.4" height="24.65" shape-rendering="crispEdges"/><rect fill="#121212" x="963.8" y="196.7" width="12.2" height="24.65" shape-rendering="crispEdges"/><rect fill="#1e2a38" x="0" y="221.1" width="12.2" height="24.65" shape-rendering="crispEdges"/><rect fill="#0f1923" x="12.2" y="221.1" width="732" height="24.65" shape-rendering="crispEdges"/><rect fill="#0f1923" x="744.2" y="221.1" width="195.2" height="24.65" shape-rendering="crispEdges"/><rect fill="#000000" x="939.4" y="221.1" width="24.4" height="24.65" shape-rendering="crispEdges"/><rect fill="#121212" x="963.8" y="221.1" width="12.2" height="24.65" shape-rendering="crispEdges"/><rect fill="#1e2a38" x="0" y="245.5" width="12.2" height="24.65" shape-rendering="crispEdges"/><rect fill="#0f1923" x="12.2" y="245.5" width="427" height="24.65" shape-rendering="crispEdges"/><rect fill="#0f1923" x="439.2" y="245.5" width="500.2" height="24.65" shape-rendering="crispEdges"/><rect fill="#000000" x="939.4" y="245.5" width="24.4" height="24.65" shape-rendering="crispEdges"/><rect fill="#121212" x="963.8" y="245.5" width="12.2" height="24.65" shape-rendering="crispEdges"/><rect fill="#1e2a38" x="0" y="269.9" width="12.2" height="24.65" shape-rendering="crispEdges"/><rect fill="#0f1923" x="12.2" y="269.9" width="793" height="24.65" shape-rendering="crispEdges"/><rect fill="#0f1923" x="805.2" y="269.9" width="134.2" height="24.65" shape-rendering="crispEdges"/><rect fill="#000000" x="939.4" y="269.9" width="24.4" height="24.65" shape-rendering="crispEdges"/><rect fill="#121212" x="963.8" y="269.9" width="12.2" height="24.65" shape-rendering="crispEdges"/><rect fill="#1e2a38" x="0" y="294.3" width="12.2" height="24.65" shape-rendering="crispEdges"/><rect fill="#0f1923" x="12.2" y="294.3" width="890.6" height="24.65" shape-rendering="crispEdges"/><rect fill="#0f1923" x="902.8" y="294.3" width="36.6" height="24.65" shape-rendering="crispEdges"/><rect fill="#000000" x="939.4" y="294.3" width="24.4" height="24.65" shape-rendering="crispEdges"/><rect fill="#121212" x="963.8" y="294.3" width="12.2" height="24.65" shape-rendering="crispEdges"/><rect fill="#1e2a38" x="0" y="318.7" width="12.2" height="24.65" shape-rendering="crispEdges"/><rect fill="#0f1923" x="12.2" y="318.7" width="366" height="24.65" shape-rendering="crispEdges"/><rect fill="#0f1923" x="378.2" y="318.7" width="561.2" height="24.65" shape-rendering="crispEdges"/><rect fill="#000000" x="939.4" y="318.7" width="24.4" height="24.65" shape-rendering="crispEdges"/><rect fill="#121212" x="963.8" y="318.7" width="12.2" height="24.65" shape-rendering="crispEdges"/><rect fill="#1e2a38" x="0" y="343.1" width="12.2" height="24.65" shape-rendering="crispEdges"/><rect fill="#0f1923" x="12.2" y="343.1" width="683.2" height="24.65" shape-rendering="crispEdges"/><rect fill="#0f1923" x="695.4" y="343.1" width="244" height="24.65" shape-rendering="crispEdges"/><rect fill="#000000" x="939.4" y="343.1" width="24.4" height="24.65" shape-rendering="crispEdges"/><rect fill="#121212" x="963.8" y="343.1" width="12.2" height="24.65" shape-rendering="crispEdges"/><rect fill="#1e2a38" x="0" y="367.5" width="12.2" height="24.65" shape-rendering="crispEdges"/><rect fill="#0f1923" x="12.2" y="367.5" width="683.2" height="24.65" shape-rendering="crispEdges"/><rect fill="#0f1923" x="695.4" y="367.5" width="244" height="24.65" shape-rendering="crispEdges"/><rect fill="#000000" x="939.4" y="367.5" width="24.4" height="24.65" shape-rendering="crispEdges"/><rect fill="#121212" x="963.8" y="367.5" width="12.2" height="24.65" shape-rendering="crispEdges"/><rect fill="#1e2a38" x="0" y="391.9" width="12.2" height="24.65" shape-rendering="crispEdges"/><rect fill="#0f1923" x="12.2" y="391.9" width="305" height="24.65" shape-rendering="crispEdges"/><rect fill="#0f1923" x="317.2" y="391.9" width="622.2" height="24.65" shape-rendering="crispEdges"/><rect fill="#000000" x="939.4" y="391.9" width="24.4" height="24.65" shape-rendering="crispEdges"/><rect fill="#121212" x="963.8" y="391.9" width="12.2" height="24.65" shape-rendering="crispEdges"/><rect fill="#1e2a38" x="0" y="416.3" width="12.2" height="24.65" shape-rendering="crispEdges"/><rect fill="#0f1923" x="12.2" y="416.3" width="329.4" height="24.65" shape-rendering="crispEdges"/><rect fill="#0f1923" x="341.6" y="416.3" width="597.8" height="24.65" shape-rendering="crispEdges"/><rect fill="#000000" x="939.4" y="416.3" width="24.4" height="24.65" shape-rendering="crispEdges"/><rect fill="#121212" x="963.8" y="416.3" width="12.2" height="24.65" shape-rendering="crispEdges"/><rect fill="#1e2a38" x="0" y="440.7" width="12.2" height="24.65" shape-rendering="crispEdges"/><rect fill="#0f1923" x="12.2" y="440.7" width="292.8" height="24.65" shape-rendering="crispEdges"/><rect fill="#0f1923" x="305" y="440.7" width="634.4" height="24.65" shape-rendering="crispEdges"/><rect fill="#000000" x="939.4" y="440.7" width="24.4" height="24.65" shape-rendering="crispEdges"/><rect fill="#121212" x="963.8" y="440.7" width="12.2" height="24.65" shape-rendering="crispEdges"/><rect fill="#1e2a38" x="0" y="465.1" width="12.2" height="24.65" shape-rendering="crispEdges"/><rect fill="#0f1923" x="12.2" y="465.1" width="927.2" height="24.65" shape-rendering="crispEdges"/><rect fill="#000000" x="939.4" y="465.1" width="24.4" height="24.65" shape-rendering="crispEdges"/><rect fill="#121212" x="963.8" y="465.1" width="12.2" height="24.65" shape-rendering="crispEdges"/><rect fill="#1e2a38" x="0" y="489.5" width="12.2" height="24.65" shape-rendering="crispEdges"/><rect fill="#0f1923" x="12.2" y="489.5" width="927.2" height="24.65" shape-rendering="crispEdges"/><rect fill="#000000" x="939.4" y="489.5" width="24.4" height="24.65" shape-rendering="crispEdges"/><rect fill="#121212" x="963.8" y="489.5" width="12.2" height="24.65" shape-rendering="crispEdges"/><rect fill="#1e2a38" x="0" y="513.9" width="12.2" height="24.65" shape-rendering="crispEdges"/><rect fill="#0f1923" x="12.2" y="513.9" width="927.2" height="24.65" shape-rendering="crispEdges"/><rect fill="#000000" x="939.4" y="513.9" width="24.4" height="24.65" shape-rendering="crispEdges"/><rect fill="#121212" x="963.8" y="513.9" width="12.2" height="24.65" shape-rendering="crispEdges"/><rect fill="#1e2a38" x="0" y="538.3" width="12.2" height="24.65" shape-rendering="crispEdges"/><rect fill="#0f1923" x="12.2" y="538.3" width="927.2" height="24.65" shape-rendering="crispEdges"/><rect fill="#000000" x="939.4" y="538.3" width="24.4" height="24.65" shape-rendering="crispEdges"/><rect fill="#121212" x="963.8" y="538.3" width="12.2" height="24.65" shape-rendering="crispEdges"/><rect fill="#1e2a38" x="0" y="562.7" width="12.2" height="24.65" shape-rendering="crispEdges"/><rect fill="#0f1923" x="12.2" y="562.7" width="951.6" height="24.65" shape-rendering="crispEdges"/><rect fill="#121212" x="963.8" y="562.7" width="12.2" height="24.65" shape-rendering="crispEdges"/><rect fill="#242f38" x="0" y="587.1" width="36.6" height="24.65" shape-rendering="crispEdges"/><rect fill="#242f38" x="36.6" y="587.1" width="61" height="24.65" shape-rendering="crispEdges"/><rect fill="#242f38" x="97.6" y="587.1" width="36.6" height="24.65" shape-rendering="crispEdges"/><rect fill="#242f38" x="134.2" y="587.1" width="134.2" height="24.65" shape-rendering="crispEdges"/><rect fill="#242f38" x="268.4" y="587.1" width="36.6" height="24.65" shape-rendering="crispEdges"/><rect fill="#242f38" x="305" y="587.1" width="109.8" height="24.65" shape-rendering="crispEdges"/><rect fill="#242f38" x="414.8" y="587.1" width="36.6" height="24.65" shape-rendering="crispEdges"/><rect fill="#242f38" x="451.4" y="587.1" width="61" height="24.65" shape-rendering="crispEdges"/><rect fill="#242f38" x="512.4" y="587.1" width="317.2" height="24.65" shape-rendering="crispEdges"/><rect fill="#242f38" x="829.6" y="587.1" width="12.2" height="24.65" shape-rendering="crispEdges"/><rect fill="#242f38" x="841.8" y="587.1" width="24.4" height="24.65" shape-rendering="crispEdges"/><rect fill="#242f38" x="866.2" y="587.1" width="97.6" height="24.65" shape-rendering="crispEdges"/><rect fill="#242f38" x="963.8" y="587.1" width="12.2" height="24.65" shape-rendering="crispEdges"/>
    <g class="terminal-1397548539-matrix">
    <text class="terminal-1397548539-r2" x="12.2" y="20" textLength="12.2" clip-path="url(#terminal-1397548539-line-0)">⭘</text><text class="terminal-1397548539-r2" x="256.2" y="20" textLength="109.8" clip-path="url(#terminal-1397548539-line-0)">CodePilot</text><text class="terminal-1397548539-r3" x="366" y="20" textLength="36.6" clip-path="url(#terminal-1397548539-line-0)">&#160;—&#160;</text><text class="terminal-1397548539-r3" x="402.6" y="20" textLength="280.6" clip-path="url(#terminal-1397548539-line-0)">autonomous&#160;coding&#160;agent</text><text class="terminal-1397548539-r1" x="976" y="20" textLength="12.2" clip-path="url(#terminal-1397548539-line-0)">
</text><text class="terminal-1397548539-r4" x="0" y="44.4" textLength="12.2" clip-path="url(#terminal-1397548539-line-1)">▊</text><text class="terminal-1397548539-r5" x="12.2" y="44.4" textLength="463.6" clip-path="url(#terminal-1397548539-line-1)">▔▔▔▔▔▔▔▔▔▔▔▔▔▔▔▔▔▔▔▔▔▔▔▔▔▔▔▔▔▔▔▔▔▔▔▔▔▔</text><text class="terminal-1397548539-r5" x="475.8" y="44.4" textLength="12.2" clip-path="url(#terminal-1397548539-line-1)">▎</text><text class="terminal-1397548539-r4" x="488" y="44.4" textLength="12.2" clip-path="url(#terminal-1397548539-line-1)">▊</text><text class="terminal-1397548539-r5" x="500.2" y="44.4" textLength="463.6" clip-path="url(#terminal-1397548539-line-1)">▔▔▔▔▔▔▔▔▔▔▔▔▔▔▔▔▔▔▔▔▔▔▔▔▔▔▔▔▔▔▔▔▔▔▔▔▔▔</text><text class="terminal-1397548539-r5" x="963.8" y="44.4" textLength="12.2" clip-path="url(#terminal-1397548539-line-1)">▎</text><text class="terminal-1397548539-r1" x="976" y="44.4" textLength="12.2" clip-path="url(#terminal-1397548539-line-1)">
</text><text class="terminal-1397548539-r4" x="0" y="68.8" textLength="12.2" clip-path="url(#terminal-1397548539-line-2)">▊</text><text class="terminal-1397548539-r2" x="12.2" y="68.8" textLength="158.6" clip-path="url(#terminal-1397548539-line-2)">GitHub&#160;Issues</text><text class="terminal-1397548539-r5" x="475.8" y="68.8" textLength="12.2" clip-path="url(#terminal-1397548539-line-2)">▎</text><text class="terminal-1397548539-r4" x="488" y="68.8" textLength="12.2" clip-path="url(#terminal-1397548539-line-2)">▊</text><text class="terminal-1397548539-r6" x="500.2" y="68.8" textLength="353.8" clip-path="url(#terminal-1397548539-line-2)">Issue&#160;#7:&#160;Fix&#160;inaccuracies&#160;in</text><text class="terminal-1397548539-r5" x="963.8" y="68.8" textLength="12.2" clip-path="url(#terminal-1397548539-line-2)">▎</text><text class="terminal-1397548539-r1" x="976" y="68.8" textLength="12.2" clip-path="url(#terminal-1397548539-line-2)">
</text><text class="terminal-1397548539-r4" x="0" y="93.2" textLength="12.2" clip-path="url(#terminal-1397548539-line-3)">▊</text><text class="terminal-1397548539-r7" x="12.2" y="93.2" textLength="329.4" clip-path="url(#terminal-1397548539-line-3)">&#160;◌&#160;#7&#160;Fix&#160;inaccuracies&#160;in…&#160;</text><text class="terminal-1397548539-r5" x="475.8" y="93.2" textLength="12.2" clip-path="url(#terminal-1397548539-line-3)">▎</text><text class="terminal-1397548539-r4" x="488" y="93.2" textLength="12.2" clip-path="url(#terminal-1397548539-line-3)">▊</text><text class="terminal-1397548539-r6" x="500.2" y="93.2" textLength="305" clip-path="url(#terminal-1397548539-line-3)">azure_deployment_guide.md</text><text class="terminal-1397548539-r5" x="963.8" y="93.2" textLength="12.2" clip-path="url(#terminal-1397548539-line-3)">▎</text><text class="terminal-1397548539-r1" x="976" y="93.2" textLength="12.2" clip-path="url(#terminal-1397548539-line-3)">
</text><text class="terminal-1397548539-r4" x="0" y="117.6" textLength="12.2" clip-path="url(#terminal-1397548539-line-4)">▊</text><text class="terminal-1397548539-r5" x="475.8" y="117.6" textLength="12.2" clip-path="url(#terminal-1397548539-line-4)">▎</text><text class="terminal-1397548539-r4" x="488" y="117.6" textLength="12.2" clip-path="url(#terminal-1397548539-line-4)">▊</text><text class="terminal-1397548539-r8" x="500.2" y="117.6" textLength="134.2" clip-path="url(#terminal-1397548539-line-4)">◌&#160;EXPLORING</text><text class="terminal-1397548539-r5" x="963.8" y="117.6" textLength="12.2" clip-path="url(#terminal-1397548539-line-4)">▎</text><text class="terminal-1397548539-r1" x="976" y="117.6" textLength="12.2" clip-path="url(#terminal-1397548539-line-4)">
</text><text class="terminal-1397548539-r4" x="0" y="142" textLength="12.2" clip-path="url(#terminal-1397548539-line-5)">▊</text><text class="terminal-1397548539-r5" x="12.2" y="142" textLength="463.6" clip-path="url(#terminal-1397548539-line-5)">▁▁▁▁▁▁▁▁▁▁▁▁▁▁▁▁▁▁▁▁▁▁▁▁▁▁▁▁▁▁▁▁▁▁▁▁▁▁</text><text class="terminal-1397548539-r5" x="475.8" y="142" textLength="12.2" clip-path="url(#terminal-1397548539-line-5)">▎</text><text class="terminal-1397548539-r4" x="488" y="142" textLength="12.2" clip-path="url(#terminal-1397548539-line-5)">▊</text><text class="terminal-1397548539-r5" x="500.2" y="142" textLength="463.6" clip-path="url(#terminal-1397548539-line-5)">▁▁▁▁▁▁▁▁▁▁▁▁▁▁▁▁▁▁▁▁▁▁▁▁▁▁▁▁▁▁▁▁▁▁▁▁▁▁</text><text class="terminal-1397548539-r5" x="963.8" y="142" textLength="12.2" clip-path="url(#terminal-1397548539-line-5)">▎</text><text class="terminal-1397548539-r1" x="976" y="142" textLength="12.2" clip-path="url(#terminal-1397548539-line-5)">
</text><text class="terminal-1397548539-r4" x="0" y="166.4" textLength="12.2" clip-path="url(#terminal-1397548539-line-6)">▊</text><text class="terminal-1397548539-r5" x="12.2" y="166.4" textLength="951.6" clip-path="url(#terminal-1397548539-line-6)">▔▔▔▔▔▔▔▔▔▔▔▔▔▔▔▔▔▔▔▔▔▔▔▔▔▔▔▔▔▔▔▔▔▔▔▔▔▔▔▔▔▔▔▔▔▔▔▔▔▔▔▔▔▔▔▔▔▔▔▔▔▔▔▔▔▔▔▔▔▔▔▔▔▔▔▔▔▔</text><text class="terminal-1397548539-r5" x="963.8" y="166.4" textLength="12.2" clip-path="url(#terminal-1397548539-line-6)">▎</text><text class="terminal-1397548539-r1" x="976" y="166.4" textLength="12.2" clip-path="url(#terminal-1397548539-line-6)">
</text><text class="terminal-1397548539-r4" x="0" y="190.8" textLength="12.2" clip-path="url(#terminal-1397548539-line-7)">▊</text><text class="terminal-1397548539-r6" x="12.2" y="190.8" textLength="927.2" clip-path="url(#terminal-1397548539-line-7)">[Orchestrator]&#160;Picked&#160;up&#160;#7:&#160;&#x27;Fix&#160;inaccuracies&#160;in&#160;azure_deployment_guide.md&#x27;</text><text class="terminal-1397548539-r5" x="963.8" y="190.8" textLength="12.2" clip-path="url(#terminal-1397548539-line-7)">▎</text><text class="terminal-1397548539-r1" x="976" y="190.8" textLength="12.2" clip-path="url(#terminal-1397548539-line-7)">
</text><text class="terminal-1397548539-r4" x="0" y="215.2" textLength="12.2" clip-path="url(#terminal-1397548539-line-8)">▊</text><text class="terminal-1397548539-r6" x="12.2" y="215.2" textLength="854" clip-path="url(#terminal-1397548539-line-8)">[Workspace]&#160;Cloned&#160;sriny3/financebot&#160;→&#160;.codepilot\workspace\financebot</text><text class="terminal-1397548539-r5" x="963.8" y="215.2" textLength="12.2" clip-path="url(#terminal-1397548539-line-8)">▎</text><text class="terminal-1397548539-r1" x="976" y="215.2" textLength="12.2" clip-path="url(#terminal-1397548539-line-8)">
</text><text class="terminal-1397548539-r4" x="0" y="239.6" textLength="12.2" clip-path="url(#terminal-1397548539-line-9)">▊</text><text class="terminal-1397548539-r6" x="12.2" y="239.6" textLength="732" clip-path="url(#terminal-1397548539-line-9)">[Orchestrator]&#160;Process&#160;GitHub&#160;issue&#160;#7:&#160;Fix&#160;inaccuracies&#160;in&#160;</text><text class="terminal-1397548539-r5" x="963.8" y="239.6" textLength="12.2" clip-path="url(#terminal-1397548539-line-9)">▎</text><text class="terminal-1397548539-r1" x="976" y="239.6" textLength="12.2" clip-path="url(#terminal-1397548539-line-9)">
</text><text class="terminal-1397548539-r4" x="0" y="264" textLength="12.2" clip-path="url(#terminal-1397548539-line-10)">▊</text><text class="terminal-1397548539-r6" x="12.2" y="264" textLength="427" clip-path="url(#terminal-1397548539-line-10)">azure_deployment_guide.md&#160;There&#160;are</text><text class="terminal-1397548539-r5" x="963.8" y="264" textLength="12.2" clip-path="url(#terminal-1397548539-line-10)">▎</text><text class="terminal-1397548539-r1" x="976" y="264" textLength="12.2" clip-path="url(#terminal-1397548539-line-10)">
</text><text class="terminal-1397548539-r4" x="0" y="288.4" textLength="12.2" clip-path="url(#terminal-1397548539-line-11)">▊</text><text class="terminal-1397548539-r6" x="12.2" y="288.4" textLength="793" clip-path="url(#terminal-1397548539-line-11)">[→]&#160;classify_issue(&#x27;Fix&#160;inaccuracies&#160;in&#160;azure_deployment_gui&#x27;)&#160;|&#160;</text><text class="terminal-1397548539-r5" x="963.8" y="288.4" textLength="12.2" clip-path="url(#terminal-1397548539-line-11)">▎</text><text class="terminal-1397548539-r1" x="976" y="288.4" textLength="12.2" clip-path="url(#terminal-1397548539-line-11)">
</text><text class="terminal-1397548539-r4" x="0" y="312.8" textLength="12.2" clip-path="url(#terminal-1397548539-line-12)">▊</text><text class="terminal-1397548539-r6" x="12.2" y="312.8" textLength="890.6" clip-path="url(#terminal-1397548539-line-12)">query_lessons(&#x27;Fix&#160;inaccuracies&#160;in&#160;deployment&#160;guide&#160;doc&#x27;)&#160;|&#160;get_issue(#7)</text><text class="terminal-1397548539-r5" x="963.8" y="312.8" textLength="12.2" clip-path="url(#terminal-1397548539-line-12)">▎</text><text class="terminal-1397548539-r1" x="976" y="312.8" textLength="12.2" clip-path="url(#terminal-1397548539-line-12)">
</text><text class="terminal-1397548539-r4" x="0" y="337.2" textLength="12.2" clip-path="url(#terminal-1397548539-line-13)">▊</text><text class="terminal-1397548539-r6" x="12.2" y="337.2" textLength="366" clip-path="url(#terminal-1397548539-line-13)">[classify_issue]&#160;documentation</text><text class="terminal-1397548539-r5" x="963.8" y="337.2" textLength="12.2" clip-path="url(#terminal-1397548539-line-13)">▎</text><text class="terminal-1397548539-r1" x="976" y="337.2" textLength="12.2" clip-path="url(#terminal-1397548539-line-13)">
</text><text class="terminal-1397548539-r4" x="0" y="361.6" textLength="12.2" clip-path="url(#terminal-1397548539-line-14)">▊</text><text class="terminal-1397548539-r6" x="12.2" y="361.6" textLength="683.2" clip-path="url(#terminal-1397548539-line-14)">[get_issue]&#160;{&quot;number&quot;:&#160;7,&#160;&quot;title&quot;:&#160;&quot;Fix&#160;inaccuracies&#160;in&#160;</text><text class="terminal-1397548539-r5" x="963.8" y="361.6" textLength="12.2" clip-path="url(#terminal-1397548539-line-14)">▎</text><text class="terminal-1397548539-r1" x="976" y="361.6" textLength="12.2" clip-path="url(#terminal-1397548539-line-14)">
</text><text class="terminal-1397548539-r4" x="0" y="386" textLength="12.2" clip-path="url(#terminal-1397548539-line-15)">▊</text><text class="terminal-1397548539-r6" x="12.2" y="386" textLength="683.2" clip-path="url(#terminal-1397548539-line-15)">azure_deployment_guide.md&quot;,&#160;&quot;body&quot;:&#160;&quot;There&#160;are&#160;a&#160;few&#160;iss</text><text class="terminal-1397548539-r5" x="963.8" y="386" textLength="12.2" clip-path="url(#terminal-1397548539-line-15)">▎</text><text class="terminal-1397548539-r1" x="976" y="386" textLength="12.2" clip-path="url(#terminal-1397548539-line-15)">
</text><text class="terminal-1397548539-r4" x="0" y="410.4" textLength="12.2" clip-path="url(#terminal-1397548539-line-16)">▊</text><text class="terminal-1397548539-r9" x="12.2" y="410.4" textLength="305" clip-path="url(#terminal-1397548539-line-16)">[→]&#160;write_todos(0/5&#160;done)</text><text class="terminal-1397548539-r5" x="963.8" y="410.4" textLength="12.2" clip-path="url(#terminal-1397548539-line-16)">▎</text><text class="terminal-1397548539-r1" x="976" y="410.4" textLength="12.2" clip-path="url(#terminal-1397548539-line-16)">
</text><text class="terminal-1397548539-r4" x="0" y="434.8" textLength="12.2" clip-path="url(#terminal-1397548539-line-17)">▊</text><text class="terminal-1397548539-r6" x="12.2" y="434.8" textLength="329.4" clip-path="url(#terminal-1397548539-line-17)">[write_todos]&#160;5&#160;todos&#160;saved</text><text class="terminal-1397548539-r5" x="963.8" y="434.8" textLength="12.2" clip-path="url(#terminal-1397548539-line-17)">▎</text><text class="terminal-1397548539-r1" x="976" y="434.8" textLength="12.2" clip-path="url(#terminal-1397548539-line-17)">
</text><text class="terminal-1397548539-r4" x="0" y="459.2" textLength="12.2" clip-path="url(#terminal-1397548539-line-18)">▊</text><text class="terminal-1397548539-r6" x="12.2" y="459.2" textLength="292.8" clip-path="url(#terminal-1397548539-line-18)">[→]&#160;task&#160;→&#160;repo_explorer</text><text class="terminal-1397548539-r5" x="963.8" y="459.2" textLength="12.2" clip-path="url(#terminal-1397548539-line-18)">▎</text><text class="terminal-1397548539-r1" x="976" y="459.2" textLength="12.2" clip-path="url(#terminal-1397548539-line-18)">
</text><text class="terminal-1397548539-r4" x="0" y="483.6" textLength="12.2" clip-path="url(#terminal-1397548539-line-19)">▊</text><text class="terminal-1397548539-r5" x="963.8" y="483.6" textLength="12.2" clip-path="url(#terminal-1397548539-line-19)">▎</text><text class="terminal-1397548539-r1" x="976" y="483.6" textLength="12.2" clip-path="url(#terminal-1397548539-line-19)">
</text><text class="terminal-1397548539-r4" x="0" y="508" textLength="12.2" clip-path="url(#terminal-1397548539-line-20)">▊</text><text class="terminal-1397548539-r5" x="963.8" y="508" textLength="12.2" clip-path="url(#terminal-1397548539-line-20)">▎</text><text class="terminal-1397548539-r1" x="976" y="508" textLength="12.2" clip-path="url(#terminal-1397548539-line-20)">
</text><text class="terminal-1397548539-r4" x="0" y="532.4" textLength="12.2" clip-path="url(#terminal-1397548539-line-21)">▊</text><text class="terminal-1397548539-r5" x="963.8" y="532.4" textLength="12.2" clip-path="url(#terminal-1397548539-line-21)">▎</text><text class="terminal-1397548539-r1" x="976" y="532.4" textLength="12.2" clip-path="url(#terminal-1397548539-line-21)">
</text><text class="terminal-1397548539-r4" x="0" y="556.8" textLength="12.2" clip-path="url(#terminal-1397548539-line-22)">▊</text><text class="terminal-1397548539-r5" x="963.8" y="556.8" textLength="12.2" clip-path="url(#terminal-1397548539-line-22)">▎</text><text class="terminal-1397548539-r1" x="976" y="556.8" textLength="12.2" clip-path="url(#terminal-1397548539-line-22)">
</text><text class="terminal-1397548539-r4" x="0" y="581.2" textLength="12.2" clip-path="url(#terminal-1397548539-line-23)">▊</text><text class="terminal-1397548539-r5" x="12.2" y="581.2" textLength="951.6" clip-path="url(#terminal-1397548539-line-23)">▁▁▁▁▁▁▁▁▁▁▁▁▁▁▁▁▁▁▁▁▁▁▁▁▁▁▁▁▁▁▁▁▁▁▁▁▁▁▁▁▁▁▁▁▁▁▁▁▁▁▁▁▁▁▁▁▁▁▁▁▁▁▁▁▁▁▁▁▁▁▁▁▁▁▁▁▁▁</text><text class="terminal-1397548539-r5" x="963.8" y="581.2" textLength="12.2" clip-path="url(#terminal-1397548539-line-23)">▎</text><text class="terminal-1397548539-r1" x="976" y="581.2" textLength="12.2" clip-path="url(#terminal-1397548539-line-23)">
</text><text class="terminal-1397548539-r10" x="0" y="605.6" textLength="36.6" clip-path="url(#terminal-1397548539-line-24)">&#160;q&#160;</text><text class="terminal-1397548539-r2" x="36.6" y="605.6" textLength="61" clip-path="url(#terminal-1397548539-line-24)">Quit&#160;</text><text class="terminal-1397548539-r10" x="97.6" y="605.6" textLength="36.6" clip-path="url(#terminal-1397548539-line-24)">&#160;l&#160;</text><text class="terminal-1397548539-r2" x="134.2" y="605.6" textLength="134.2" clip-path="url(#terminal-1397548539-line-24)">Toggle&#160;Log&#160;</text><text class="terminal-1397548539-r10" x="268.4" y="605.6" textLength="36.6" clip-path="url(#terminal-1397548539-line-24)">&#160;i&#160;</text><text class="terminal-1397548539-r2" x="305" y="605.6" textLength="109.8" clip-path="url(#terminal-1397548539-line-24)">New&#160;Task&#160;</text><text class="terminal-1397548539-r10" x="414.8" y="605.6" textLength="36.6" clip-path="url(#terminal-1397548539-line-24)">&#160;s&#160;</text><text class="terminal-1397548539-r2" x="451.4" y="605.6" textLength="61" clip-path="url(#terminal-1397548539-line-24)">Skip&#160;</text><text class="terminal-1397548539-r11" x="829.6" y="605.6" textLength="12.2" clip-path="url(#terminal-1397548539-line-24)">▏</text><text class="terminal-1397548539-r10" x="841.8" y="605.6" textLength="24.4" clip-path="url(#terminal-1397548539-line-24)">^p</text><text class="terminal-1397548539-r2" x="866.2" y="605.6" textLength="97.6" clip-path="url(#terminal-1397548539-line-24)">&#160;palette</text>
    </g>
    </g>
</svg>
